<?xml version="1.0" encoding="UTF-8"?>
<svg width="43px" height="43px" viewBox="0 0 43 43" version="1.1" xmlns="http://www.w3.org/2000/svg" xmlns:xlink="http://www.w3.org/1999/xlink">
    <!-- Generator: sketchtool 56.2 (101010) - https://sketch.com -->
    <title>2B03FB03-5970-4165-8A82-F50DA6283F6C</title>
    <desc>Created with sketchtool.</desc>
    <g id="Desktop" stroke="none" stroke-width="1" fill="none" fill-rule="evenodd">
        <g id="10" transform="translate(-1232.000000, -726.000000)" fill="#EDDFCE">
            <g id="Group-3" transform="translate(1232.000000, 726.000000)">
                <path d="M28.7701783,28.7739174 C28.405613,29.1384826 27.8129609,29.1384826 27.4483957,28.7739174 L21.4994391,22.8230913 L15.5523522,28.7739174 C15.1859174,29.1384826 14.5951348,29.1384826 14.2287,28.7739174 C13.8622652,28.4074826 13.8622652,27.8167 14.2287,27.4502652 L20.1776565,21.5013087 L14.2287,15.5542217 C13.8622652,15.187787 13.8622652,14.5970043 14.2287,14.2324391 C14.5951348,13.8660043 15.1859174,13.8660043 15.5523522,14.2324391 L21.4994391,20.1795261 L27.4483957,14.2324391 C27.8129609,13.8660043 28.405613,13.8660043 28.7701783,14.2324391 C29.1347435,14.5970043 29.1347435,15.187787 28.7701783,15.5542217 L22.8212217,21.5013087 L28.7701783,27.4502652 C29.1347435,27.8167 29.1347435,28.4074826 28.7701783,28.7739174 M21.4994391,42.9994391 C9.62583043,42.9994391 -0.000560869565,33.3749174 -0.000560869565,21.4994391 C-0.000560869565,9.62583043 9.62583043,-0.000560869565 21.4994391,-0.000560869565 C33.3749174,-0.000560869565 42.9994391,9.62583043 42.9994391,21.4994391 C42.9994391,33.3749174 33.3749174,42.9994391 21.4994391,42.9994391" id="Fill-1"></path>
            </g>
        </g>
    </g>
</svg>