<?xml version="1.0" encoding="UTF-8"?>
<svg width="273px" height="313px" viewBox="0 0 273 313" version="1.1" xmlns="http://www.w3.org/2000/svg" xmlns:xlink="http://www.w3.org/1999/xlink">
    <!-- Generator: sketchtool 56.2 (101010) - https://sketch.com -->
    <title>431CAFC8-BA54-4297-8362-2D780B105669</title>
    <desc>Created with sketchtool.</desc>
    <g id="Content-Map" stroke="none" stroke-width="1" fill="none" fill-rule="evenodd">
        <g id="00" transform="translate(-584.000000, -243.000000)" fill="#c8a9d4">
            <g id="Group-7" transform="translate(583.798246, 242.578544)">
                <g id="Group-3" transform="translate(0.201754, 0.421456)">
                    <path d="M102.789964,11.4395868 L102.793698,11.4395868 C104.26842,11.0421353 105.799143,11.9270273 106.194891,13.4080966 L108.998729,23.9255633 C109.394477,25.4066326 108.509644,26.9401955 107.034923,27.3413965 L107.034923,27.3413965 C105.556468,27.738848 104.029477,26.8502064 103.633729,25.3691372 L100.829891,14.8516705 C100.434143,13.3706012 101.315243,11.8332888 102.789964,11.4395868 M44.510459,45.2304637 L44.5141924,45.2304637 C45.593166,44.1468459 47.3590985,44.1468459 48.438072,45.2304637 L56.102891,52.9245249 C57.1818646,54.0118922 57.1818646,55.7854258 56.102891,56.8690436 L56.102891,56.8727931 C55.0239175,57.9564109 53.2542515,57.9564109 52.175278,56.8727931 L44.510459,49.1749824 C43.4314854,48.0876151 43.4314854,46.3140815 44.510459,45.2304637 M10.8644049,103.760822 L10.8644049,103.760822 C11.260153,102.279753 12.7908767,101.391111 14.2655984,101.788563 L24.7342552,104.608218 C26.2089768,105.00192 27.0938098,106.539233 26.6980617,108.020302 C26.3023136,109.505121 24.7715899,110.390013 23.2968683,109.996311 L12.8282115,107.176655 C11.3534898,106.779204 10.4686568,105.245641 10.8644049,103.760822 M10.8644049,171.346325 L10.8644049,171.342576 C10.4686568,169.865256 11.3534898,168.327943 12.8282115,167.930492 L23.2968683,165.110836 C24.7715899,164.717134 26.3023136,165.602026 26.6980617,167.086845 C27.0938098,168.567914 26.2089768,170.101477 24.7342552,170.502678 L14.2655984,173.318584 C12.7908767,173.716036 11.260153,172.827394 10.8644049,171.346325 M44.5141924,229.876683 L44.510459,229.876683 C43.4314854,228.793066 43.4314854,227.015782 44.510459,225.932165 L52.175278,218.234354 C53.2542515,217.150736 55.0239175,217.150736 56.102891,218.234354 C57.1818646,219.317972 57.1818646,221.095255 56.102891,222.178873 L48.438072,229.876683 C47.3590985,230.964051 45.593166,230.964051 44.5141924,229.876683 M102.793698,263.67131 L102.789964,263.67131 C101.315243,263.273858 100.434143,261.736546 100.829891,260.251727 L103.633729,249.741759 C104.029477,248.256941 105.556468,247.372049 107.034923,247.76575 L107.034923,247.76575 C108.509644,248.166952 109.394477,249.700514 108.998729,251.181584 L106.194891,261.69905 C105.799143,263.18012 104.26842,264.068761 102.793698,263.67131 M170.085806,263.67131 L170.085806,263.67131 C168.611084,264.068761 167.080361,263.18012 166.684613,261.69905 L163.880775,251.181584 C163.485027,249.700514 164.366126,248.166952 165.844581,247.76575 L165.848315,247.76575 C167.319303,247.372049 168.850027,248.256941 169.245775,249.741759 L172.053346,260.251727 C172.445361,261.736546 171.564261,263.273858 170.085806,263.67131 M228.369045,229.876683 L228.369045,229.876683 C227.286338,230.964051 225.520405,230.964051 224.441432,229.876683 L216.772879,222.178873 C215.693906,221.095255 215.693906,219.317972 216.772879,218.234354 L216.776613,218.234354 C217.855586,217.150736 219.625252,217.150736 220.704226,218.234354 L228.369045,225.932165 C229.448018,227.015782 229.448018,228.793066 228.369045,229.876683 M262.011365,171.342576 L262.011365,171.346325 C261.619351,172.827394 260.088627,173.716036 258.613905,173.318584 L248.145249,170.502678 C246.670527,170.101477 245.785694,168.567914 246.181442,167.086845 C246.57719,165.602026 248.107914,164.717134 249.578902,165.110836 L260.051292,167.930492 C261.529748,168.327943 262.410847,169.865256 262.011365,171.342576 M262.011365,103.760822 L262.011365,103.760822 C262.410847,105.245641 261.529748,106.779204 260.051292,107.176655 L249.578902,109.996311 C248.107914,110.390013 246.57719,109.505121 246.181442,108.020302 C245.785694,106.539233 246.670527,105.00192 248.145249,104.608218 L258.613905,101.788563 C260.088627,101.391111 261.619351,102.279753 262.011365,103.760822 M228.369045,45.2304637 L228.369045,45.2304637 C229.448018,46.3140815 229.448018,48.0876151 228.369045,49.1749824 L220.704226,56.8727931 C219.625252,57.9564109 217.855586,57.9564109 216.776613,56.8727931 L216.772879,56.8690436 C215.693906,55.7854258 215.693906,54.0118922 216.772879,52.9245249 L224.441432,45.2304637 C225.520405,44.1468459 227.286338,44.1468459 228.369045,45.2304637 M170.085806,11.4395868 L170.085806,11.4395868 C171.564261,11.8332888 172.445361,13.3706012 172.053346,14.8516705 L169.245775,25.3691372 C168.850027,26.8502064 167.319303,27.738848 165.848315,27.3413965 L165.844581,27.3413965 C164.366126,26.9401955 163.485027,25.4066326 163.880775,23.9255633 L166.684613,13.4080966 C167.080361,11.9270273 168.611084,11.0421353 170.085806,11.4395868 M68.2180092,18.8861782 L68.2217427,18.8861782 C69.543392,18.117522 71.2495889,18.5749662 72.0149507,19.9060538 L83.8649924,40.5247879 C84.6303543,41.8521259 84.1711372,43.5656668 82.8494879,44.334323 L82.8494879,44.334323 C81.5278386,45.1029792 79.8179082,44.6417855 79.0562798,43.3144475 L67.2025047,22.6957134 C66.4408763,21.3646258 66.89636,19.6510849 68.2180092,18.8861782 M18.2790813,69.0400585 L18.2790813,69.0400585 C19.0444431,67.7127204 20.7506401,67.2515267 22.0722893,68.0201829 L42.6026545,79.9249803 C43.9243038,80.689887 44.3835209,82.4034279 43.618159,83.7307659 L43.618159,83.7345155 C42.8527972,85.0618535 41.1466002,85.5230472 39.824951,84.754391 L19.2945858,72.8495936 C17.9729365,72.0809374 17.5137194,70.371146 18.2790813,69.0400585 M0,137.555448 L0,137.551699 C0,136.018136 1.25071328,134.765789 2.77770353,134.765789 L26.4815203,134.765789 C28.0085106,134.765789 29.2592239,136.018136 29.2592239,137.551699 L29.2592239,137.555448 C29.2592239,139.089011 28.0085106,140.341358 26.4815203,140.341358 L2.77770353,140.341358 C1.25071328,140.341358 0,139.089011 0,137.555448 M18.2790813,206.067089 L18.2790813,206.063339 C17.5137194,204.73975 17.9729365,203.02621 19.2945858,202.257553 L39.824951,190.352756 C41.1466002,189.587849 42.8527972,190.045293 43.618159,191.372632 L43.618159,191.372632 C44.3835209,192.703719 43.9243038,194.41726 42.6026545,195.185916 L22.0722893,207.086964 C20.7506401,207.85562 19.0444431,207.398176 18.2790813,206.067089 M68.2180092,256.220969 L68.2180092,256.220969 C66.89636,255.452313 66.4408763,253.738772 67.2025047,252.415183 L79.0562798,231.796449 C79.8179082,230.465361 81.5241052,230.004168 82.8457544,230.772824 L82.8494879,230.772824 C84.1711372,231.54148 84.6303543,233.255021 83.8649924,234.582359 L72.0112173,255.201093 C71.2495889,256.528431 69.543392,256.989625 68.2180092,256.220969 M204.657761,256.220969 L204.654028,256.220969 C203.336112,256.989625 201.629915,256.528431 200.864553,255.201093 L189.010778,234.582359 C188.24915,233.255021 188.704633,231.54148 190.026282,230.772824 C191.351665,230.004168 193.057862,230.465361 193.823224,231.796449 L205.676999,252.415183 C206.438628,253.738772 205.983144,255.452313 204.657761,256.220969 M254.596689,206.063339 L254.596689,206.067089 C253.831327,207.398176 252.128864,207.85562 250.807215,207.086964 L230.273116,195.185916 C228.951467,194.41726 228.495983,192.703719 229.257611,191.372632 C230.022973,190.045293 231.72917,189.587849 233.050819,190.352756 L253.581185,202.257553 C254.902834,203.02621 255.362051,204.73975 254.596689,206.063339 M272.87577,137.551699 L272.87577,137.555448 C272.87577,139.089011 271.628791,140.341358 270.098067,140.341358 L246.39425,140.341358 C244.86726,140.341358 243.616547,139.089011 243.616547,137.555448 L243.616547,137.551699 C243.616547,136.018136 244.86726,134.765789 246.39425,134.765789 L270.098067,134.765789 C271.628791,134.765789 272.87577,136.018136 272.87577,137.551699 M254.596689,69.0400585 L254.596689,69.0400585 C255.358317,70.371146 254.902834,72.0809374 253.581185,72.8495936 L233.050819,84.754391 C231.72917,85.5230472 230.022973,85.0618535 229.257611,83.7345155 L229.257611,83.7307659 C228.495983,82.4034279 228.951467,80.689887 230.273116,79.9249803 L250.803481,68.0201829 C252.12513,67.2515267 253.831327,67.7127204 254.596689,69.0400585 M204.654028,18.8861782 L204.657761,18.8861782 C205.97941,19.6510849 206.438628,21.3646258 205.673266,22.6957134 L193.823224,43.3144475 C193.057862,44.6417855 191.351665,45.1029792 190.026282,44.334323 C188.704633,43.5656668 188.24915,41.8521259 189.010778,40.5247879 L200.864553,19.9060538 C201.629915,18.5749662 203.336112,18.117522 204.654028,18.8861782 M136.439752,0.528418196 L136.439752,0.528418196 C137.966742,0.528418196 139.217455,1.78076539 139.217455,3.31432826 L139.217455,27.123923 C139.217455,28.6574859 137.966742,29.9135826 136.439752,29.9135826 L136.439752,29.9135826 C134.912762,29.9135826 133.662048,28.6574859 133.662048,27.123923 L133.662048,3.31432826 C133.662048,1.78076539 134.912762,0.528418196 136.439752,0.528418196" id="Fill-1"></path>
                </g>
                <g id="Group-6" transform="translate(55.201754, 58.421456)">
                    <path d="M11.3189428,109.065604 C11.2824191,119.649342 13.0734682,129.854294 22.6553952,140.553153 C29.8974631,148.641357 38.2927738,154.616527 47.9711135,158.86859 C56.0623537,162.426211 65.0658053,164.799197 75.0556317,166.217789 C68.3994556,153.962934 70.5279487,141.396138 76.3015789,130.013978 C77.4511135,127.744973 78.7452669,125.535386 80.1395411,123.381502 L65.6405726,114.806818 L76.3868669,116.114002 L76.2274153,115.909755 L58.6988669,108.155774 L68.0620116,108.155774 L68.0583034,108.126066 L68.0212216,108.096357 L51.605126,102.867619 L58.847194,102.358857 C58.2427613,102.028347 57.6309122,101.708978 57.015355,101.389609 L39.8353751,96.6733471 L47.9377399,97.0335655 C45.5830481,95.9751917 43.2172317,94.9428131 40.8662481,93.9178617 C29.4598984,88.9490752 18.4948216,84.169682 11.4604116,77.2661141 L11.449287,77.2549733 C12.2131713,83.0741723 12.1835059,88.6037112 11.9610153,93.951284 C11.8831436,95.7857985 11.7830229,97.5980316 11.6866103,99.3954102 C11.5086179,102.667085 11.3306254,105.883056 11.3189428,109.065604 M69.1299663,94.3597791 C69.8122707,90.571915 70.8320191,86.5389539 72.2596669,82.5691238 C73.1273801,80.1590024 74.1434204,77.767449 75.3226204,75.472449 L75.4672392,75.1976432 C75.4746556,75.0973762 75.4783638,74.9971092 75.4820719,74.8968422 L61.8619411,66.8420607 L71.4772418,68.0155558 L55.8843613,61.119415 L64.0720141,61.119415 L49.7807034,56.5628374 L56.9374833,56.0615024 L56.6519537,55.8981044 L39.6462581,51.2301189 L48.3493474,51.6200461 L49.0094028,51.6831772 C47.9933625,51.1372791 46.9773223,50.5950947 45.9649902,50.0566238 C41.0850304,47.4533956 36.3051914,44.9021578 32.1631587,42.3360655 C32.8825449,46.2353374 32.8677122,50.0714782 32.4486883,53.8556286 C31.93696,58.5050461 30.8245072,63.0764782 29.7194707,67.5959199 L29.3857348,68.969949 C28.39936,73.0363325 27.4834405,77.0432985 27.157121,80.8942937 C32.0593298,83.5086626 37.6067613,85.9262112 43.2691462,88.39575 C51.8609902,92.1353374 60.6975738,95.9900461 68.2437122,100.888274 C68.4254128,98.8457985 68.7146506,96.6473519 69.1299663,94.3597791 M78.6970606,82.5691238 C77.1099613,86.4981044 75.9826757,90.5496335 75.2336242,94.3597791 C74.451199,98.34075 74.0840896,102.061769 74.0358833,105.099488 C78.2965776,108.597692 81.8749675,112.623226 84.3816946,117.406333 C89.9884569,110.10541 96.3961852,103.784876 101.583924,99.0091966 C110.565126,90.7464539 120.195259,85.0757985 129.094882,79.8396335 C130.841433,78.8109684 132.562027,77.7971578 134.238122,76.7870607 C134.067546,75.7992451 133.852472,74.8151432 133.611441,73.8347549 C129.580653,77.102716 122.931893,79.8099248 117.677408,81.4476189 C122.894812,77.9457015 127.923098,73.1068908 132.009508,68.0935413 L131.857473,67.5922063 C131.634983,66.8606286 131.419908,66.1327646 131.204834,65.4049005 C126.35454,69.0405073 118.904814,72.048517 112.945775,73.9053131 C118.938188,69.8872063 124.715526,64.3910898 129.480532,58.6535898 C129.34333,57.9517209 129.217252,57.2461383 129.113423,56.5368422 C123.614198,60.9485898 114.625579,64.6101917 107.509589,66.8234927 C114.273302,62.2891966 120.792276,56.1097791 126.198796,49.6407015 C122.22734,52.1659442 117.503124,54.6577646 112.089186,57.03075 C109.523129,58.1522549 106.805035,59.2477646 103.942324,60.3135655 C101.784165,61.1082743 99.5444267,61.8881286 97.2231084,62.6457015 C89.6435965,65.1115267 84.3038229,71.1758228 80.6772267,78.2316481 C79.9504242,79.6502403 79.2903688,81.1022549 78.6970606,82.5691238 M92.5470984,30.2074733 C98.1316116,28.9931286 105.154897,28.8111626 109.552794,29.6467209 C106.397136,30.1034927 101.361433,31.8191723 97.7274204,33.6722549 C98.4913047,34.1401675 99.1476518,34.6303617 99.6964619,35.1354102 C102.473886,34.8791723 105.114107,34.7157743 107.212935,35.692449 C105.655501,35.9078374 103.760623,37.4304102 102.002947,38.8935655 C102.206897,39.7514053 102.214313,40.6166723 102.043737,41.467085 C101.932492,42.0389782 101.739667,42.5885898 101.472678,43.1159199 C101.057363,45.6968665 100.627214,48.4412112 100.308311,51.2412597 C100.148859,52.6301432 100.022781,54.0115995 99.9412015,55.3447791 C101.313227,54.8582985 102.644462,54.3681044 103.942324,53.8667694 C106.838409,52.7489782 109.556502,51.6014782 112.089186,50.4354102 C121.47458,46.1053617 128.290208,41.4930801 132.102213,37.1296092 C132.198625,37.0256286 132.287622,36.9179345 132.376618,36.8102403 C133.125669,35.3025218 134.011924,33.7502403 135.042796,32.1422549 C135.146625,31.7374733 135.202248,31.3475461 135.213373,30.9687597 C135.231913,30.4265752 135.146625,29.8955316 134.950092,29.3756286 C134.590399,28.4138083 133.874721,27.4928374 132.769685,26.6275704 C130.956386,25.201551 128.279083,23.9723519 124.689569,22.9993908 C120.692155,21.9150218 115.563747,21.1425947 109.21535,20.7675218 C103.486218,20.4258714 97.823833,20.6858228 92.5470984,21.3876917 C86.9477525,22.1304102 81.778555,23.3744636 77.4251562,24.9378859 C82.2383688,23.7978131 87.4557726,23.0848034 92.5470984,22.8025704 C100.33056,22.3717937 107.817368,22.9585413 113.09781,24.5850947 C107.379803,25.1607015 99.4517223,25.5543422 92.5470984,27.1400461 C89.6176392,27.8159199 86.8772971,28.6997549 84.5633952,29.9103859 C85.6758481,30.0069393 86.4731059,30.1294879 86.8031336,30.1814782 L86.8031336,30.174051 L86.8142581,30.174051 L86.8365072,30.1851917 C88.0268317,30.3708714 89.1318682,30.5825461 90.1664493,30.8165024 C90.9192091,30.5936869 91.7164669,30.3894393 92.5470984,30.2074733 M76.5500267,46.6326917 C72.3301223,45.5780316 68.9705147,44.3636869 66.3822078,43.0342209 C66.471204,43.8140752 66.5527839,44.5865024 66.6195311,45.3515024 C66.9161852,48.7085898 66.9829323,51.9988325 66.6009902,54.9585655 C72.6341927,58.9692451 77.5697751,63.2844393 79.9652569,68.1195364 C83.0652921,64.1237112 86.8735889,60.7406286 91.5088091,58.4679102 C88.812965,58.1893908 85.7129298,57.2758471 83.2803663,56.3623034 C86.6881801,56.5999733 90.4371462,56.2397549 93.9042908,55.50075 C93.9339562,54.8397306 93.9784543,54.1749976 94.0303688,53.5102646 C89.8883361,53.6996578 84.2111185,52.1176675 80.0060468,50.5431044 C84.6449751,50.8661869 89.7437172,50.3722791 94.4605172,49.3658956 C94.5198481,48.9314053 94.5754707,48.4894879 94.6348015,48.051284 C93.971038,48.2406772 93.2776091,48.3929345 92.5470984,48.5080558 C90.6114304,48.8125704 88.4643965,48.8422791 86.2061172,48.5043422 C82.5869374,47.9658714 79.3756569,47.3345607 76.5500267,46.6326917 M76.5500267,36.2049248 C75.5080292,36.4277403 74.4845726,36.7471092 73.546404,37.2038811 C75.2595814,37.0033471 77.2286229,37.14075 78.830555,37.3821335 C76.9653424,37.7572063 75.0185499,38.4924976 73.1941273,39.4320364 C73.7837273,39.6325704 74.4029927,39.8256772 75.0593399,40.018784 C76.3868669,39.9927888 77.7588921,40.1153374 78.9343839,40.2935898 C78.4374883,40.3901432 77.9368845,40.5164053 77.4325726,40.664949 C80.1543738,41.34825 83.3545298,41.9758471 87.0812468,42.5291723 C89.1578254,42.8411141 91.0267462,42.759415 92.5470984,42.4103374 C93.8746254,42.1058228 94.9351638,41.5970607 95.6397172,40.9694636 C95.9178304,40.7132257 96.0884065,40.4904102 96.1254883,40.3121578 C96.1366128,40.2453131 96.0995311,40.1376189 96.0068267,39.9927888 C95.487682,39.2166481 94.3789374,38.4405073 92.5470984,37.7423519 C90.9377499,37.1296092 88.7684669,36.576284 85.9465449,36.1417937 L85.9428367,36.1492209 L85.9317122,36.1455073 L85.9094631,36.1343665 C85.1604116,36.0192451 80.6957675,35.328517 76.5500267,36.2049248 M71.8740166,8.52380825 C58.9918128,10.9190752 48.5013826,14.8034927 40.8922053,18.9961383 C36.0864091,21.6476432 32.5006028,24.3734199 30.2645726,26.8726675 C28.4772317,28.8705801 27.6466003,30.4934199 27.8839235,31.5332257 C27.9135889,31.6557743 27.9729197,31.7783228 28.0730405,31.9008714 L29.2485323,30.5974005 C38.6153852,22.9325461 48.0081952,16.6157257 58.2390531,15.8544393 C48.8573675,20.1065024 41.4669726,26.9877888 34.2990682,35.3916481 C35.1816141,35.9375461 34.4511034,35.4213568 35.3299411,35.9672549 C39.9540367,30.8424976 46.2876015,27.5262597 53.9672342,25.7808714 C48.5495889,29.227085 43.3840996,33.0186626 39.8613323,38.9938325 C40.5881348,39.5880073 40.6622984,39.617716 41.3853927,40.2081772 C43.6473801,37.4489782 47.5112996,34.9088811 52.5247537,33.5014296 C48.6460015,35.8484199 46.0131965,39.43575 45.7165424,42.7668422 C46.3543487,43.1530558 46.4062631,43.0565024 47.0440694,43.4390024 C48.1157323,41.912716 49.9735286,40.4495607 52.2021424,39.9890752 C50.6372921,41.0623034 49.9253223,43.1679102 49.6991235,45.2252403 C53.4443814,47.2268665 57.2341374,49.261915 60.82736,51.3675218 C60.8644418,49.6407015 60.7754455,47.7801917 60.6048694,45.8676917 C60.2933826,42.3174976 59.7297399,38.7338811 59.1920543,35.4176432 C58.8323613,33.8430801 59.0066455,32.2313811 59.6629927,30.6159684 C60.6716166,28.142716 62.9076468,25.8031529 66.0818455,23.734682 C68.8333122,21.941017 72.4042858,20.292182 76.5500267,18.8958714 C81.2631185,17.3138811 86.7178455,16.0698277 92.5470984,15.3308228 C97.6866304,14.6846578 103.119108,14.4321335 108.596085,14.692085 C109.667747,13.927085 110.427924,12.9726917 110.787617,11.977449 C111.032356,11.312716 111.080563,10.6368422 110.909986,10.0203859 C110.731994,9.38536165 110.298137,8.75776456 109.571335,8.19701214 C107.939737,6.94181796 105.102983,6.08397816 100.749584,6.05426942 C97.045116,6.02827427 93.4518933,6.12482767 89.9810405,6.33278883 C83.5213977,6.71900243 77.4696543,7.48028883 71.8740166,8.52380825 M100.441805,163.592279 C101.494927,163.31376 102.536925,163.027813 103.56409,162.723299 C107.28339,161.624075 110.835823,160.335459 114.232512,158.835167 C114.810988,158.57893 115.385755,158.318978 115.960522,158.047886 C111.22889,157.992182 106.986736,157.394294 100.593841,155.032449 C109.508296,155.04359 121.285463,151.801624 129.517614,146.595167 C121.51537,149.361794 116.435169,145.715046 113.802364,143.657716 C120.948019,143.865677 138.050127,139.405653 145.874379,130.66757 C138.921549,134.165774 126.23217,135.20558 119.127305,133.456478 C129.580653,131.18376 140.419652,125.565095 149.311858,117.391478 C141.057458,120.859973 132.510112,121.959197 123.855229,122.196867 C133.433448,117.714561 144.888004,113.054002 152.964412,105.823638 C152.975536,105.545119 152.982952,105.2666 152.990369,104.984367 C144.806424,107.57274 135.476653,108.3266 128.575737,108.824221 C137.226912,104.360483 146.048663,100.264391 152.80496,93.6727646 C152.779003,93.0785898 152.756754,92.4881286 152.727088,91.8939539 C146.434313,94.0478374 139.477775,94.8091238 132.688105,95.4590024 C139.896799,91.9162354 146.679053,87.7681529 152.359979,82.0417937 C152.348854,81.4253374 152.341438,80.8125947 152.33773,80.1961383 C147.906459,82.9553374 141.172412,84.9421092 135.854887,86.0413325 C141.669307,82.9182015 147.858253,77.1584199 152.597302,72.2936141 C152.626968,71.8702646 152.664049,71.4543422 152.704839,71.0347063 C146.975707,76.2968665 139.826344,80.5080801 132.135586,85.034949 C123.52891,90.1040024 114.206555,95.5889782 105.662917,103.446939 C99.9708669,108.686818 92.7547562,115.850337 86.981126,124.02024 C87.0107914,124.135362 87.044165,124.246769 87.0738304,124.358177 L86.6696392,124.462158 C84.811843,127.124803 83.1172065,129.887716 81.6784342,132.728614 C76.1977499,143.531454 74.4956971,155.500362 82.5127738,166.804536 C84.4336091,166.592862 86.3210707,166.351478 88.1714506,166.072959 C89.3432342,165.89842 90.5038933,165.705313 91.6497197,165.501066 C94.6755914,164.966308 97.6087587,164.331284 100.441805,163.592279 M103.56409,168.999269 C102.529508,169.285216 101.487511,169.556308 100.441805,169.808833 C97.5383034,170.525556 94.6014279,171.123444 91.6497197,171.621066 C90.1849902,171.869876 88.7128443,172.092692 87.2406984,172.293226 C85.5015638,185.446769 86.4174833,195.900532 89.0502883,201.207255 C88.8945449,201.452352 88.7462179,201.701163 88.6053072,201.953687 L92.602721,204.393517 L86.6362657,207.342109 C85.1678279,214.954973 85.3680694,235.465143 88.5200191,241.8191 C88.3642757,242.06791 88.2159487,242.320434 88.0787462,242.569245 L92.07616,245.005362 L86.1059965,247.957667 C85.6980971,250.092983 85.6647235,252.224585 85.8056342,254.3599 L83.7438883,254.3599 L77.7329348,254.382182 L77.7329348,254.3599 L76.9430933,254.3599 C77.1544594,245.926333 77.4807789,237.492765 76.4128242,229.059197 L71.3659965,226.567376 L75.5896091,223.98643 C75.5376946,223.737619 75.4857801,223.485095 75.4338657,223.228857 C78.7378506,219.871769 77.5215688,193.026211 76.9393852,188.443638 L71.8925575,185.951818 L76.1161701,183.374585 C76.0642556,183.118347 76.0123411,182.869536 75.9604267,182.617012 C77.6661877,180.882765 78.1816242,177.566527 77.4696543,172.608881 C65.6405726,171.190289 55.0463135,168.564779 45.5682153,164.394415 C35.1037424,159.796988 26.0224191,153.331624 18.1759185,144.567546 C7.13297006,132.23842 5.19730214,120.830265 5.28259019,109.065604 C5.30483925,105.767934 5.49024805,102.444269 5.67565686,99.0649005 C5.76836126,97.375216 5.86106566,95.6743908 5.93152101,93.951284 C6.31717132,84.8158471 6.12063799,75.1716481 2.09726692,64.6027646 C1.50395874,63.2992937 1.02189585,61.9772549 0.68816,60.6515024 C0.105976352,58.3082257 -0.0238098113,55.9500947 0.476793962,53.6550947 C0.99223044,51.2969636 2.15659774,49.0539539 4.14418013,47.0189053 C5.92039648,45.2066723 8.37150088,43.5726917 11.638404,42.1986626 C17.8644317,39.5842937 25.5069826,42.232085 15.1315059,45.9048277 C11.4752443,47.1971578 7.28500528,50.7584927 6.37279396,54.9288568 C6.07613987,56.2731772 6.16884428,57.714051 6.53595371,59.1883471 C6.59528453,59.426017 6.6620317,59.6636869 6.73619522,59.9050704 C10.5148267,54.2789782 15.3169147,50.3537112 20.7456845,47.4831044 C15.7544795,52.4890267 11.8126883,58.3007985 9.24663044,65.1783714 C9.50249459,65.5794393 9.76577509,65.9767937 10.0401801,66.3741481 C11.5976141,63.4478374 14.6049449,59.1994879 19.0102581,58.5124733 C16.881765,61.6430316 13.8781424,66.3147306 13.1587562,70.317983 C13.6148619,70.8341723 14.0783839,71.3355073 14.5419059,71.8182743 C15.7693122,69.2447549 17.0857147,66.6823762 19.2364569,64.8590024 C17.386077,67.9041481 17.7272292,71.8776917 18.3724518,75.3239053 C19.3477021,76.0926189 20.3896996,76.8316238 21.4873197,77.5557743 C21.8915109,74.6925947 22.5181927,71.8405558 23.1967889,68.969949 C23.4192795,68.041551 23.6454782,67.1131529 23.871677,66.1773277 C24.8654682,62.1072306 25.8703839,57.9888568 26.3635713,53.8556286 C27.0681248,47.951017 26.7269726,42.0166966 23.8049298,36.175216 C22.8890103,35.2171092 22.2957021,34.099318 22.0138808,32.8552646 C21.3315764,29.8509684 22.6479789,26.3676189 25.7850958,22.8619879 C28.4698153,19.8576917 32.5970153,16.6825704 37.9924116,13.707983 C46.2876015,9.13655097 57.7755311,4.9141966 71.8740166,2.40380825 C77.5067361,1.40113835 83.5510631,0.673274272 89.9810405,0.301915049 C93.4704342,0.10509466 97.0710732,0.00854126214 100.775541,0.0345364078 C106.589961,0.0716723301 110.650414,1.4234199 113.223888,3.40276456 C115.063144,4.81392961 116.190429,6.54075 116.709574,8.39011893 C117.232427,10.2617694 117.113765,12.2039782 116.450002,14.0347791 C116.294258,14.4581286 116.108849,14.8814782 115.893775,15.2936869 C119.160678,15.6724733 122.090137,16.184949 124.689569,16.8125461 C129.921805,18.0751675 133.822807,19.8057015 136.470444,21.8778859 C139.225619,24.0429102 140.757096,26.5755801 141.139038,29.3756286 C141.213202,29.9475218 141.242867,30.537983 141.228034,31.1321578 C141.139038,33.9953374 139.904215,36.958784 137.605146,39.9148034 C132.862389,50.0083471 135.231913,57.8811626 137.631103,65.8653859 C138.372739,68.3200704 139.114374,70.7858956 139.692849,73.3668422 C148.566515,67.5290752 155.582384,61.1342694 158.400598,51.1521335 C159.37214,47.7170607 154.848165,44.9318665 150.175863,43.6989539 C146.126535,42.6294393 145.588849,38.169415 150.761755,39.5582985 C155.463722,40.8209199 159.772623,43.2681772 161.330057,44.5679345 C164.370761,47.1154587 165.056774,49.7558228 164.203893,52.7824005 C163.243476,56.1803374 161.908532,59.1957743 160.269518,61.921551 L160.473468,61.9809684 C157.803581,71.283517 158.252271,80.9945607 158.70096,90.7835898 C159.516759,108.579124 160.34739,126.627182 144.068497,144.589828 C136.177498,153.294488 127.1073,159.748711 116.657659,164.364706 C112.511918,166.195507 108.147395,167.729221 103.56409,168.999269" id="Fill-4"></path>
                </g>
            </g>
        </g>
    </g>
</svg>