<?xml version="1.0" encoding="UTF-8"?>
<svg width="126px" height="126px" viewBox="0 0 126 126" version="1.1" xmlns="http://www.w3.org/2000/svg" xmlns:xlink="http://www.w3.org/1999/xlink">
    <!-- Generator: Sketch 62 (91390) - https://sketch.com -->
    <title>Group</title>
    <desc>Created with Sketch.</desc>
    <g id="Covid-Update" stroke="none" stroke-width="1" fill="none" fill-rule="evenodd">
        <g id="Homepage-02" transform="translate(-657.000000, -269.000000)">
            <g id="Group" transform="translate(657.000000, 269.000000)">
                <circle id="Oval" fill="#003623" cx="63" cy="63" r="63"></circle>
                <g id="Group-7" transform="translate(21.000000, 16.000000)" fill="#F2E9DA">
                    <g id="Group-3">
                        <path d="M31.6276814,3.50987323 L31.6288301,3.50987323 C32.0825906,3.38792788 32.5535825,3.65942884 32.6753512,4.11384783 L33.5380705,7.34079783 C33.6598392,7.79521681 33.3875829,8.26574179 32.9338224,8.38883756 L32.9338224,8.38883756 C32.4789131,8.51078291 32.0090699,8.23813152 31.8873013,7.78371253 L31.024582,4.55676253 C30.9028133,4.10234355 31.1739209,3.63066815 31.6276814,3.50987323 M13.6955258,13.8775286 L13.6966746,13.8775286 C14.0286665,13.545055 14.5720303,13.545055 14.9040222,13.8775286 L17.262428,16.2382065 C17.5944199,16.5718306 17.5944199,17.1159829 17.262428,17.4484565 L17.262428,17.449607 C16.9304361,17.7820806 16.3859235,17.7820806 16.0539317,17.449607 L13.6955258,15.0877787 C13.363534,14.7541546 13.363534,14.2100023 13.6955258,13.8775286 M3.34289382,31.8357067 L3.34289382,31.8357067 C3.46466247,31.3812877 3.93565438,31.1086363 4.38941488,31.2305817 L7.61054006,32.0957034 C8.06430057,32.2164983 8.33655687,32.6881737 8.21478823,33.1425927 C8.09301958,33.5981621 7.62202767,33.8696631 7.16826717,33.7488681 L3.94714199,32.8837464 C3.49338148,32.7618011 3.22112518,32.2912761 3.34289382,31.8357067 M3.34289382,52.5721679 L3.34289382,52.5710175 C3.22112518,52.117749 3.49338148,51.6460736 3.94714199,51.5241282 L7.16826717,50.6590065 C7.62202767,50.5382116 8.09301958,50.8097125 8.21478823,51.2652819 C8.33655687,51.7197009 8.06430057,52.1902259 7.61054006,52.3133217 L4.38941488,53.177293 C3.93565438,53.2992383 3.46466247,53.0265869 3.34289382,52.5721679 M13.6966746,70.530346 L13.6955258,70.530346 C13.363534,70.1978724 13.363534,69.6525696 13.6955258,69.320096 L16.0539317,66.9582677 C16.3859235,66.625794 16.9304361,66.625794 17.262428,66.9582677 C17.5944199,67.2907413 17.5944199,67.8360441 17.262428,68.1685177 L14.9040222,70.530346 C14.5720303,70.8639701 14.0286665,70.8639701 13.6966746,70.530346 M31.6288301,80.8991518 L31.6276814,80.8991518 C31.1739209,80.7772065 30.9028133,80.3055311 31.024582,79.8499617 L31.8873013,76.6253125 C32.0090699,76.1697431 32.4789131,75.8982422 32.9338224,76.0190371 L32.9338224,76.0190371 C33.3875829,76.1421329 33.6598392,76.6126578 33.5380705,77.0670768 L32.6753512,80.2940268 C32.5535825,80.7484458 32.0825906,81.0210972 31.6288301,80.8991518 M52.3340941,80.8991518 L52.3340941,80.8991518 C51.8803336,81.0210972 51.4093417,80.7484458 51.2875731,80.2940268 L50.4248537,77.0670768 C50.3030851,76.6126578 50.5741926,76.1421329 51.0291019,76.0190371 L51.0302507,76.0190371 C51.4828624,75.8982422 51.9538543,76.1697431 52.075623,76.6253125 L52.9394911,79.8499617 C53.0601109,80.3055311 52.7890034,80.7772065 52.3340941,80.8991518 M70.2673984,70.530346 L70.2673984,70.530346 C69.9342578,70.8639701 69.390894,70.8639701 69.0589021,70.530346 L66.6993475,68.1685177 C66.3673556,67.8360441 66.3673556,67.2907413 66.6993475,66.9582677 L66.7004963,66.9582677 C67.0324881,66.625794 67.5770007,66.625794 67.9089926,66.9582677 L70.2673984,69.320096 C70.5993903,69.6525696 70.5993903,70.1978724 70.2673984,70.530346 M80.6188817,52.5710175 L80.6188817,52.5721679 C80.4982618,53.0265869 80.0272699,53.2992383 79.5735094,53.177293 L76.3523842,52.3133217 C75.8986237,52.1902259 75.6263674,51.7197009 75.748136,51.2652819 C75.8699047,50.8097125 76.3408966,50.5382116 76.7935083,50.6590065 L80.0157823,51.5241282 C80.4706915,51.6460736 80.7417991,52.117749 80.6188817,52.5710175 M80.6188817,31.8357067 L80.6188817,31.8357067 C80.7417991,32.2912761 80.4706915,32.7618011 80.0157823,32.8837464 L76.7935083,33.7488681 C76.3408966,33.8696631 75.8699047,33.5981621 75.748136,33.1425927 C75.6263674,32.6881737 75.8986237,32.2164983 76.3523842,32.0957034 L79.5735094,31.2305817 C80.0272699,31.1086363 80.4982618,31.3812877 80.6188817,31.8357067 M70.2673984,13.8775286 L70.2673984,13.8775286 C70.5993903,14.2100023 70.5993903,14.7541546 70.2673984,15.0877787 L67.9089926,17.449607 C67.5770007,17.7820806 67.0324881,17.7820806 66.7004963,17.449607 L66.6993475,17.4484565 C66.3673556,17.1159829 66.3673556,16.5718306 66.6993475,16.2382065 L69.0589021,13.8775286 C69.390894,13.545055 69.9342578,13.545055 70.2673984,13.8775286 M52.3340941,3.50987323 L52.3340941,3.50987323 C52.7890034,3.63066815 53.0601109,4.10234355 52.9394911,4.55676253 L52.075623,7.78371253 C51.9538543,8.23813152 51.4828624,8.51078291 51.0302507,8.38883756 L51.0291019,8.38883756 C50.5741926,8.26574179 50.3030851,7.79521681 50.4248537,7.34079783 L51.2875731,4.11384783 C51.4093417,3.65942884 51.8803336,3.38792788 52.3340941,3.50987323 M20.9901567,5.79462286 L20.9913054,5.79462286 C21.3979668,5.55878516 21.9229504,5.69913735 22.1584464,6.10753922 L25.804613,12.4337417 C26.040109,12.8409932 25.8988114,13.3667387 25.4921501,13.6025764 L25.4921501,13.6025764 C25.0854888,13.8384141 24.5593564,13.6969115 24.3250092,13.28966 L20.6776938,6.96345751 C20.4433466,6.55505564 20.5834954,6.02931013 20.9901567,5.79462286 M5.6243327,21.1827452 L5.6243327,21.1827452 C5.85982866,20.7754938 6.38481233,20.6339911 6.79147364,20.8698288 L13.1085091,24.5224371 C13.5151704,24.7571244 13.656468,25.2828699 13.420972,25.6901214 L13.420972,25.6912718 C13.1854761,26.0985232 12.6604924,26.2400259 12.2538311,26.0041881 L5.93679563,22.3515799 C5.53013432,22.1157422 5.38883675,21.5911471 5.6243327,21.1827452 M0,42.2045125 L0,42.2033621 C0,41.7328371 0.384834856,41.3485942 0.854678009,41.3485942 L8.1481601,41.3485942 C8.61800325,41.3485942 9.00283811,41.7328371 9.00283811,42.2033621 L9.00283811,42.2045125 C9.00283811,42.6750375 8.61800325,43.0592804 8.1481601,43.0592804 L0.854678009,43.0592804 C0.384834856,43.0592804 0,42.6750375 0,42.2045125 M5.6243327,63.2251294 L5.6243327,63.223979 C5.38883675,62.817878 5.53013432,62.2921325 5.93679563,62.0562948 L12.2538311,58.4036865 C12.6604924,58.1689992 13.1854761,58.3093514 13.420972,58.7166029 L13.420972,58.7166029 C13.656468,59.1250047 13.5151704,59.6507502 13.1085091,59.8865879 L6.79147364,63.5380458 C6.38481233,63.7738835 5.85982866,63.6335313 5.6243327,63.2251294 M20.9901567,78.6132518 L20.9901567,78.6132518 C20.5834954,78.3774141 20.4433466,77.8516686 20.6776938,77.4455676 L24.3250092,71.119365 C24.5593564,70.7109632 25.08434,70.5694606 25.4910014,70.8052983 L25.4921501,70.8052983 C25.8988114,71.041136 26.040109,71.5668815 25.804613,71.9741329 L22.1572976,78.3003354 C21.9229504,78.7075869 21.3979668,78.8490895 20.9901567,78.6132518 M62.9716188,78.6132518 L62.9704701,78.6132518 C62.5649575,78.8490895 62.0399738,78.7075869 61.8044779,78.3003354 L58.1571625,71.9741329 C57.9228153,71.5668815 58.0629641,71.041136 58.4696254,70.8052983 C58.8774355,70.5694606 59.4024191,70.7109632 59.6379151,71.119365 L63.2852305,77.4455676 C63.5195777,77.8516686 63.3794289,78.3774141 62.9716188,78.6132518 M78.3374428,63.223979 L78.3374428,63.2251294 C78.1019468,63.6335313 77.5781119,63.7738835 77.1714506,63.5380458 L70.8532664,59.8865879 C70.4466051,59.6507502 70.3064563,59.1250047 70.5408035,58.7166029 C70.7762994,58.3093514 71.3012831,58.1689992 71.7079444,58.4036865 L78.0249799,62.0562948 C78.4316412,62.2921325 78.5729388,62.817878 78.3374428,63.223979 M83.9617755,42.2033621 L83.9617755,42.2045125 C83.9617755,42.6750375 83.5780894,43.0592804 83.1070975,43.0592804 L75.8136154,43.0592804 C75.3437722,43.0592804 74.9589374,42.6750375 74.9589374,42.2045125 L74.9589374,42.2033621 C74.9589374,41.7328371 75.3437722,41.3485942 75.8136154,41.3485942 L83.1070975,41.3485942 C83.5780894,41.3485942 83.9617755,41.7328371 83.9617755,42.2033621 M78.3374428,21.1827452 L78.3374428,21.1827452 C78.57179,21.5911471 78.4316412,22.1157422 78.0249799,22.3515799 L71.7079444,26.0041881 C71.3012831,26.2400259 70.7762994,26.0985232 70.5408035,25.6912718 L70.5408035,25.6901214 C70.3064563,25.2828699 70.4466051,24.7571244 70.8532664,24.5224371 L77.1703019,20.8698288 C77.5769632,20.6339911 78.1019468,20.7754938 78.3374428,21.1827452 M62.9704701,5.79462286 L62.9716188,5.79462286 C63.3782801,6.02931013 63.5195777,6.55505564 63.2840817,6.96345751 L59.6379151,13.28966 C59.4024191,13.6969115 58.8774355,13.8384141 58.4696254,13.6025764 C58.0629641,13.3667387 57.9228153,12.8409932 58.1571625,12.4337417 L61.8044779,6.10753922 C62.0399738,5.69913735 62.5649575,5.55878516 62.9704701,5.79462286 M41.9814621,0.16212831 L41.9814621,0.16212831 C42.4513053,0.16212831 42.8361401,0.546371198 42.8361401,1.01689617 L42.8361401,8.32211275 C42.8361401,8.79263772 42.4513053,9.17803104 41.9814621,9.17803104 L41.9814621,9.17803104 C41.511619,9.17803104 41.1267841,8.79263772 41.1267841,8.32211275 L41.1267841,1.01689617 C41.1267841,0.546371198 41.511619,0.16212831 41.9814621,0.16212831" id="Fill-1"></path>
                    </g>
                    <g id="Group-6" transform="translate(17.000000, 18.000000)">
                        <path d="M3.49858233,33.3612437 C3.48729318,36.5986223 4.04089016,39.7201369 7.0025767,42.9927291 C9.24103406,45.466768 11.8359483,47.294467 14.8274351,48.5950981 C17.3283639,49.6833117 20.1112489,50.409166 23.1990134,50.8430883 C21.1416499,47.0945447 21.7995478,43.2505835 23.5841244,39.7689816 C23.9394351,39.074933 24.3394461,38.3990592 24.7704036,37.7402243 L20.2889043,35.1173796 L23.6104861,35.5172243 L23.5612011,35.4547485 L18.1432861,33.0829427 L21.037349,33.0829427 L21.0362029,33.0738553 L21.0247412,33.064768 L15.9506753,31.4653893 L18.1891327,31.309768 C18.002308,31.2086709 17.813191,31.1109816 17.6229279,31.0132922 L12.3127523,29.5706709 L14.8171196,29.6808553 C14.0893058,29.3571175 13.3580534,29.0413311 12.6313858,28.7278165 C9.10578677,27.2079524 5.71658123,25.7460204 3.54230903,23.6343408 L3.53887054,23.630933 C3.77498023,25.4109233 3.76581092,27.1023117 3.69704111,28.7380398 C3.67297167,29.2991854 3.64202526,29.8535155 3.61222501,30.4033019 C3.55720916,31.4040495 3.50219331,32.3877583 3.49858233,33.3612437 M21.3674441,28.8629913 C21.5783382,27.7043505 21.8935332,26.4707388 22.3348061,25.2564379 C22.6030084,24.5192243 22.9170572,23.7876903 23.2815372,23.0856903 L23.3262376,23.001632 C23.3285299,22.9709621 23.3296761,22.9402922 23.3308222,22.9096223 L19.1209636,20.4458068 L22.0929656,20.8047583 L17.273348,18.6953505 L19.8040771,18.6953505 L15.3867629,17.3015738 L17.5988585,17.1482243 L17.5106039,17.0982437 L12.254298,15.6703893 L14.9443437,15.7896612 L15.1483609,15.8089718 C14.8343121,15.6419913 14.5202632,15.4761466 14.2073606,15.3114379 C12.6990094,14.5151563 11.2216046,13.7347777 9.94133997,12.9498553 C10.1636957,14.1425738 10.159111,15.3159816 10.0295946,16.4734864 C9.871424,17.8956612 9.52757494,19.2939816 9.18601821,20.676399 L9.0828635,21.0966903 C8.777984,22.3405252 8.49488161,23.5661854 8.39401922,24.7441369 C9.9092474,25.5438262 11.623908,26.2833117 13.3740997,27.0387 C16.0297606,28.1825738 18.7610683,29.3616612 21.093511,30.8599427 C21.1496731,30.2351854 21.2390738,29.5627194 21.3674441,28.8629913 M24.324546,25.2564379 C23.833988,26.4582437 23.4855543,27.697535 23.2540293,28.8629913 C23.0121888,30.0807 22.8987186,31.2188942 22.8838185,32.1480786 C24.2007604,33.2181175 25.3068082,34.4494573 26.0816147,35.9125252 C27.8146139,33.6793019 29.7951845,31.7459621 31.3986673,30.285166 C34.1746753,27.7577388 37.151262,26.0231854 39.9020544,24.421535 C40.4418975,24.1068845 40.9737173,23.7967777 41.4917832,23.4878068 C41.4390597,23.1856515 41.3725822,22.884632 41.2980816,22.5847485 C40.0522019,23.5843602 37.9971307,24.4124476 36.373017,24.9133893 C37.985669,23.8422146 39.5398668,22.3621078 40.802939,20.8286126 L40.7559463,20.6752631 C40.6871765,20.4514864 40.620699,20.2288456 40.5542215,20.0062049 C39.0550396,21.1182728 36.7523971,22.0383699 34.9105123,22.6063311 C36.7627126,21.3772631 38.5484353,19.6960981 40.0212554,17.9410981 C39.9788474,17.7264087 39.9398778,17.5105835 39.9077853,17.2936223 C38.2080248,18.6430981 35.4297244,19.7631175 33.2302366,20.4401272 C35.3208388,19.053166 37.3357943,17.1629913 39.0069007,15.1842146 C37.7793596,15.9566417 36.3191473,16.7188456 34.6457485,17.4447 C33.8526034,17.7877485 33.0124655,18.1228456 32.1276273,18.4488553 C31.4605601,18.6919427 30.7682773,18.9304864 30.050779,19.1622146 C27.7080207,19.916467 26.0575453,21.7714282 24.9365973,23.9296806 C24.7119493,24.3636029 24.5079322,24.8077485 24.324546,25.2564379 M28.6054668,9.23993301 C30.331589,8.86848641 32.5024227,8.81282621 33.8617727,9.06840874 C32.8863875,9.20812718 31.3298975,9.7329233 30.2066572,10.2997485 C30.4427669,10.4428748 30.6456378,10.5928165 30.81527,10.7473019 C31.6737465,10.6689233 32.4898149,10.6189427 33.1385435,10.9176903 C32.6571548,10.9835738 32.0714653,11.4493019 31.5281837,11.8968553 C31.5912227,12.1592534 31.5935151,12.4239233 31.5407915,12.6840495 C31.5064066,12.8589816 31.4468061,13.0270981 31.3642824,13.188399 C31.2359121,13.977865 31.1029571,14.8173117 31.004387,15.6737971 C30.955102,16.098632 30.9161324,16.5211951 30.8909168,16.9289913 C31.3149973,16.7801854 31.72647,16.6302437 32.1276273,16.4768942 C33.022781,16.1349816 33.8629188,15.7839816 34.6457485,15.4273019 C37.5466884,14.1028165 39.653337,12.692001 40.8315931,11.3572922 C40.8613933,11.3254864 40.8889012,11.2925447 40.9164092,11.2596029 C41.1479342,10.7984184 41.4218673,10.3236029 41.7405007,9.83174854 C41.7725933,9.70793301 41.7897858,9.58866117 41.7932243,9.47279709 C41.7989551,9.30695243 41.7725933,9.14451553 41.7118466,8.98548641 C41.6006688,8.69128252 41.3794592,8.40957379 41.0379025,8.14490388 C40.4774285,7.70870971 39.6498985,7.33271942 38.5404122,7.03510777 C37.3048479,6.70341845 35.7197037,6.4671466 33.7574718,6.35241845 C31.9866492,6.24791359 30.2364575,6.32742816 28.6054668,6.54211748 C26.8747598,6.76930194 25.2770079,7.14983592 23.9314119,7.62805922 C25.4191322,7.27933107 27.0317843,7.06123398 28.6054668,6.97490388 C31.011264,6.84313689 33.3253682,7.02261262 34.957505,7.5201466 C33.1901209,7.69621456 30.7396232,7.81662233 28.6054668,8.30166117 C27.6999976,8.50839903 26.8529827,8.77874854 26.1377767,9.14905922 C26.4816258,9.1785932 26.7280509,9.21607864 26.8300595,9.23198155 L26.8300595,9.22970971 L26.833498,9.22970971 L26.8403749,9.23311748 C27.2082934,9.28991359 27.5498502,9.35466117 27.8696298,9.42622427 C28.102301,9.35806893 28.3487261,9.2955932 28.6054668,9.23993301 M23.6609173,14.2641175 C22.3565832,13.9415155 21.3181591,13.5700689 20.518137,13.1634087 C20.5456449,13.4019524 20.5708605,13.6382243 20.5914914,13.8722243 C20.6831845,14.8990981 20.7038154,15.9055252 20.5857606,16.8108553 C22.4505687,18.0376515 23.9761123,19.3575932 24.7165339,20.8365641 C25.6747266,19.6143117 26.8518366,18.5794864 28.284541,17.8843019 C27.4512801,17.7991078 26.4930874,17.5196709 25.7412041,17.240234 C26.7945284,17.312933 27.9532997,17.2027485 29.0249626,16.9767 C29.0341319,16.7745058 29.0478859,16.5711757 29.0639322,16.3678456 C27.7836675,16.4257777 26.0288912,15.9418748 24.7291417,15.4602437 C26.1629923,15.5590689 27.7389671,15.4079913 29.1968871,15.1001563 C29.2152258,14.9672534 29.2324182,14.8320786 29.2507568,14.6980398 C29.0455936,14.7559718 28.831261,14.8025447 28.6054668,14.8377583 C28.0071694,14.9309039 27.3435407,14.9399913 26.6455271,14.8366223 C25.5268715,14.6719136 24.5342939,14.4788068 23.6609173,14.2641175 M23.6609173,11.0744476 C23.3388454,11.1426029 23.0225043,11.2402922 22.7325249,11.3800107 C23.2620524,11.3186709 23.8706653,11.3607 24.3658079,11.434535 C23.7892876,11.5492631 23.1875518,11.7741757 22.6236393,12.0615641 C22.8058793,12.1229039 22.9972887,12.1819718 23.2001596,12.2410398 C23.6104861,12.2330883 24.0345666,12.2705738 24.3979005,12.3250981 C24.2443146,12.354632 24.0895825,12.3932534 23.9337043,12.4386903 C24.7749883,12.6477 25.7641274,12.8396709 26.9160217,13.0089233 C27.5578733,13.1043408 28.1355397,13.0793505 28.6054668,12.9725738 C29.0157933,12.8794282 29.3435961,12.7238068 29.5613671,12.5318359 C29.6473294,12.4534573 29.7000529,12.3853019 29.7115146,12.3307777 C29.7149531,12.3103311 29.7034914,12.2773893 29.6748373,12.2330883 C29.5143744,11.9956806 29.1716715,11.7582728 28.6054668,11.5447194 C28.1080318,11.3572922 27.4375261,11.1880398 26.5652957,11.0551369 L26.5641495,11.0574087 L26.560711,11.0562728 L26.5538341,11.052865 C26.322309,11.0176515 24.9423282,10.8063699 23.6609173,11.0744476 M22.2156051,2.60728252 C18.2338331,3.33995243 14.9913365,4.52812718 12.6394089,5.8105835 C11.153981,6.62163204 10.0456409,7.45539903 9.35450425,8.21987476 C8.80205343,8.83100097 8.54531281,9.32739903 8.61866727,9.64545728 C8.62783658,9.68294272 8.64617519,9.72042816 8.67712161,9.75791359 L9.04045545,9.35920485 C11.9356645,7.01466117 14.8388967,5.08245728 18.0011619,4.8495932 C15.1013682,6.15022427 12.8170643,8.25508835 10.6015302,10.8256806 C10.8743171,10.9926612 10.6485229,10.834768 10.9201636,11.0017485 C12.3494295,9.43417573 14.3070768,8.41979709 16.6807815,7.88591359 C15.0062366,8.94004951 13.4096308,10.0998262 12.3207754,11.9275252 C12.5454235,12.1092728 12.5683468,12.1183602 12.7918487,12.2989718 C13.4910084,11.4549816 14.6853108,10.6780107 16.2349239,10.2474961 C15.0360368,10.965399 14.2222607,12.0627 14.1305676,13.0816223 C14.3277078,13.1997583 14.3437541,13.1702243 14.5408942,13.2872243 C14.8721354,12.8203602 15.4463634,12.3728068 16.1352076,12.2319524 C15.6515266,12.560234 15.4314632,13.2043019 15.3615473,13.8336029 C16.5191724,14.445865 17.6905515,15.0683505 18.801184,15.7124184 C18.8126456,15.1842146 18.7851377,14.6151175 18.7324142,14.0301175 C18.6361365,12.9441757 18.4619196,11.8480107 18.2957259,10.833632 C18.184548,10.352001 18.2384177,9.85901068 18.4412887,9.36488447 C18.7530451,8.60836019 19.4441817,7.89272913 20.4252977,7.26002039 C21.275751,6.7113699 22.3795065,6.20702039 23.6609173,5.77991359 C25.1176912,5.29601068 26.8036977,4.9154767 28.6054668,4.68942816 C30.1940494,4.49177767 31.873179,4.41453495 33.5660625,4.49404951 C33.8973037,4.26004951 34.1322673,3.96811748 34.2434451,3.66369029 C34.3190919,3.46036019 34.3339921,3.25362233 34.2812685,3.06505922 C34.2262527,2.8708165 34.0921515,2.67884563 33.8675035,2.50732136 C33.3631915,2.12337961 32.4863765,1.86098155 31.1407805,1.85189417 C29.9957631,1.84394272 28.8851307,1.8734767 27.8123216,1.93708835 C25.8157048,2.05522427 23.9451659,2.28808835 22.2156051,2.60728252 M31.0456489,50.0399913 C31.3711593,49.9547971 31.6932313,49.8673311 32.0107186,49.7741854 C33.1603206,49.4379524 34.2583453,49.0437874 35.308231,48.5848748 C35.4870326,48.5064961 35.6646879,48.4269816 35.8423432,48.3440592 C34.3798386,48.3270204 33.0686275,48.1441369 31.0926416,47.4216903 C33.8480187,47.4250981 37.4882341,46.4334379 40.0327171,44.8408748 C37.5592962,45.6871369 35.9890522,44.5716612 35.1752761,43.9423602 C37.3839332,44.0059718 42.6700393,42.6417291 45.0884444,39.9689039 C42.9393878,41.0389427 39.0172162,41.357001 36.8211669,40.8219816 C40.0522019,40.1267971 43.4024378,38.4081466 46.150938,35.9079816 C43.599578,36.968933 40.957671,37.305166 38.2825254,37.377865 C41.2430658,36.0068068 44.7835649,34.5812243 47.279909,32.3695835 C47.2833475,32.2843893 47.2856398,32.1991951 47.2879322,32.112865 C44.7583493,32.9046029 41.8746019,33.1351951 39.7415915,33.2874087 C42.415591,31.9220301 45.1423141,30.6691078 47.230624,28.6528456 C47.2226009,28.4710981 47.2157239,28.2904864 47.2065546,28.1087388 C45.2615151,28.7675738 43.1113123,29.0004379 41.0126869,29.1992243 C43.2408288,28.1155544 45.3371619,26.8467291 47.0930844,25.0951369 C47.0896459,24.9065738 47.0873536,24.7191466 47.0862074,24.5305835 C45.716542,25.3745738 43.635109,25.9822922 41.9915105,26.3185252 C43.7886949,25.3632146 45.7016419,23.601399 47.1664388,22.1133408 C47.1756082,21.9838456 47.1870698,21.8566223 47.1996776,21.7282631 C45.4288549,23.337865 43.2190517,24.626001 40.8419085,26.0106903 C38.181663,27.5612243 35.3002079,29.2389816 32.6594471,31.6425932 C30.9000861,33.2453796 28.6696519,35.4365738 26.8850753,37.9356029 C26.8942446,37.9708165 26.9045601,38.0048942 26.9137294,38.0389718 L26.7887976,38.0707777 C26.2145697,38.885234 25.6907729,39.7303602 25.2460615,40.5993408 C23.5520318,43.9037388 23.0259427,47.5648165 25.5039483,51.0225641 C26.097661,50.9578165 26.6810582,50.8839816 27.2529938,50.7987874 C27.6151815,50.745399 27.9739307,50.6863311 28.3280952,50.6238553 C29.2633646,50.4602825 30.16998,50.2660398 31.0456489,50.0399913 M32.0107186,51.6938942 C31.690939,51.7813602 31.368867,51.8642825 31.0456489,51.9415252 C30.1482029,52.1607583 29.2404414,52.3436417 28.3280952,52.4958553 C27.8753606,52.5719621 27.4203337,52.6401175 26.9653068,52.7014573 C26.4277561,56.7248942 26.7108585,59.9225155 27.5246346,61.5457485 C27.4764957,61.6207194 27.4306492,61.6968262 27.3870949,61.7740689 L28.6226592,62.5203699 L26.7784821,63.4222922 C26.3246014,65.750933 26.3864942,72.024632 27.3607332,73.9681951 C27.3125943,74.0443019 27.2667478,74.1215447 27.2243397,74.1976515 L28.459904,74.9428165 L26.6145807,75.8458748 C26.4885027,76.4990301 26.4781873,77.1510495 26.5217415,77.8042049 L25.8844746,77.8042049 L24.0265435,77.8110204 L24.0265435,77.8042049 L23.7824107,77.8042049 C23.847742,75.2245252 23.9486044,72.6448456 23.6185093,70.065166 L22.0585807,69.3029621 L23.364061,68.5134961 C23.3480147,68.4373893 23.3319684,68.3601466 23.3159221,68.281768 C24.3371538,67.2548942 23.9612122,59.0433117 23.7812645,57.6415835 L22.2213359,56.8793796 L23.5268162,56.0910495 C23.5107699,56.0126709 23.4947236,55.9365641 23.4786773,55.8593214 C24.0059126,55.3288456 24.1652293,54.314467 23.9451659,52.7980107 C20.2889043,52.3640883 17.0143151,51.5609913 14.0847211,50.2853505 C10.8502476,48.8790786 8.04329318,46.9014379 5.61801117,44.2206612 C2.2047362,40.449399 1.60643884,36.9598456 1.6328006,33.3612437 C1.63967758,32.3525447 1.69698576,31.3358942 1.75429394,30.3022049 C1.78294803,29.7853602 1.81160211,29.2651078 1.83337922,28.7380398 C1.95258023,25.9436709 1.89183356,22.9936806 0.648246138,19.7608456 C0.464859975,19.3621369 0.315858717,18.9577485 0.212704,18.5522243 C0.032756327,17.8354573 -0.00735939623,17.1141466 0.147372679,16.4121466 C0.306689409,15.6908359 0.666584755,15.0047388 1.2809284,14.3822534 C1.82994073,13.8279233 2.58755482,13.3281175 3.59732488,12.9078262 C5.52173343,12.1081369 7.88397645,12.9180495 4.67701092,14.0414767 C3.54689369,14.4367777 2.25172891,15.5261272 1.96977268,16.801768 C1.8780796,17.2129718 1.90673369,17.6537097 2.02020387,18.1046709 C2.03854249,18.1773699 2.05917343,18.2500689 2.0820967,18.3239039 C3.25003733,16.6029816 4.73431909,15.4023117 6.41230249,14.5242437 C4.86956639,16.055467 3.65119457,17.8331854 2.85804941,19.9369136 C2.93713469,20.0595932 3.0185123,20.1811369 3.1033284,20.3026806 C3.58471708,19.4075738 4.5142557,18.1080786 5.87589796,17.897933 C5.2180001,18.8555155 4.28960765,20.2845058 4.06725192,21.5090301 C4.20823004,21.6669233 4.35150048,21.8202728 4.49477092,21.9679427 C4.87415104,21.1807485 5.28103909,20.3969621 5.94581394,19.8392243 C5.37387834,20.7706806 5.47932538,21.9861175 5.67875784,23.0402534 C5.98019884,23.2753893 6.30227079,23.5014379 6.64153519,23.7229427 C6.76646702,22.8471466 6.96016865,21.9747583 7.16991658,21.0966903 C7.23868639,20.8127097 7.30860236,20.5287291 7.37851834,20.2424767 C7.68569016,18.9975058 7.99630048,17.737768 8.14874023,16.4734864 C8.3665113,14.6673699 8.26106425,12.852166 7.3578874,11.0653602 C7.07478501,10.7722922 6.89139884,10.4303796 6.80429042,10.0498456 C6.59339633,9.13088447 7.00028438,8.06538932 7.96993872,6.99307864 C8.79976111,6.07411748 10.0754411,5.10290388 11.743109,4.1930301 C14.3070768,2.79470971 17.8578914,1.50316602 22.2156051,0.735282524 C23.9566275,0.428583495 25.8248741,0.205942718 27.8123216,0.0923504854 C28.8908615,0.0321466019 30.0037863,0.00261262136 31.1488036,0.0105640777 C32.945988,0.021923301 34.2010371,0.435399029 34.9964746,1.04084563 C35.5649717,1.47249612 35.9134054,2.0007 36.0738683,2.56638932 C36.2354773,3.13889417 36.1988001,3.73298155 35.9936368,4.29299126 C35.945498,4.42248641 35.8881898,4.55198155 35.8217123,4.67806893 C36.8314824,4.79393301 37.7369515,4.95069029 38.5404122,5.14266117 C40.1576489,5.52887476 41.3634129,6.05821456 42.1817737,6.69205922 C43.0333732,7.35430194 43.5067387,8.12900097 43.6247936,8.98548641 C43.6477168,9.16041845 43.6568861,9.3410301 43.6523015,9.52277767 C43.6247936,10.3985738 43.2431211,11.3050398 42.5324997,12.209234 C41.0665566,15.2966709 41.7989551,17.7048262 42.5405229,20.1470592 C42.7697556,20.8979039 42.9989883,21.6521563 43.1777898,22.4416223 C45.9205591,20.6559524 48.0891005,18.6998942 48.9601848,15.646535 C49.2604796,14.5958068 47.8621601,13.743865 46.4179941,13.3667388 C45.1663835,13.0395932 45.0001898,11.6753505 46.5990879,12.1001854 C48.0524232,12.486399 49.3842653,13.2349718 49.8656539,13.6325447 C50.805508,14.4117874 51.0175483,15.2194282 50.7539307,16.1452049 C50.4570743,17.1845738 50.0444554,18.1069427 49.5378512,18.9407097 L49.6008902,18.9588845 C48.7756524,21.8043699 48.9143382,24.7748068 49.053024,27.7690981 C49.30518,33.2124379 49.5619206,38.7330204 44.5302627,44.2274767 C42.0912268,46.8900786 39.2877108,48.8643117 36.057822,50.2762631 C34.7764112,50.8362728 33.4273767,51.3054087 32.0107186,51.6938942" id="Fill-4"></path>
                    </g>
                </g>
            </g>
        </g>
    </g>
</svg>