<svg width="273" height="313" viewBox="0 0 273 313" xmlns="http://www.w3.org/2000/svg"><g fill="#c8a9d4" fill-rule="evenodd"><path d="M102.79 11.44h.004a2.78 2.78 0 0 1 3.4 1.968L109 23.926a2.8 2.8 0 0 1-1.964 3.415 2.783 2.783 0 0 1-3.401-1.972l-2.804-10.517c-.396-1.481.485-3.019 1.96-3.412M44.51 45.23h.004a2.774 2.774 0 0 1 3.924 0l7.665 7.695a2.81 2.81 0 0 1 0 3.944v.004a2.78 2.78 0 0 1-3.928 0l-7.665-7.698a2.81 2.81 0 0 1 0-3.945m-33.646 58.53a2.785 2.785 0 0 1 3.402-1.971l10.468 2.82a2.788 2.788 0 0 1-1.437 5.388l-10.469-2.82a2.797 2.797 0 0 1-1.964-3.416m0 67.585v-.003a2.797 2.797 0 0 1 1.964-3.413l10.469-2.82a2.787 2.787 0 0 1 3.401 1.977 2.8 2.8 0 0 1-1.964 3.416l-10.468 2.816a2.785 2.785 0 0 1-3.402-1.973m33.65 58.53h-.004a2.81 2.81 0 0 1 0-3.944l7.665-7.698a2.78 2.78 0 0 1 3.928 0 2.81 2.81 0 0 1 0 3.945l-7.665 7.698a2.77 2.77 0 0 1-3.924 0m58.28 33.794h-.004c-1.475-.397-2.356-1.934-1.96-3.42l2.804-10.51a2.785 2.785 0 0 1 3.4-1.975 2.8 2.8 0 0 1 1.965 3.416l-2.804 10.517a2.785 2.785 0 0 1-3.401 1.972m67.292 0a2.785 2.785 0 0 1-3.401-1.972l-2.804-10.517a2.8 2.8 0 0 1 1.964-3.416h.003a2.785 2.785 0 0 1 3.398 1.976l2.807 10.51c.392 1.485-.489 3.022-1.967 3.42m58.283-33.795a2.77 2.77 0 0 1-3.928 0l-7.668-7.698a2.81 2.81 0 0 1 0-3.945h.004a2.78 2.78 0 0 1 3.927 0l7.665 7.698a2.81 2.81 0 0 1 0 3.945m33.642-58.534v.003a2.78 2.78 0 0 1-3.397 1.973l-10.469-2.816a2.8 2.8 0 0 1-1.964-3.416 2.785 2.785 0 0 1 3.398-1.976l10.472 2.82a2.79 2.79 0 0 1 1.96 3.412m0-67.582a2.79 2.79 0 0 1-1.96 3.416l-10.472 2.82a2.785 2.785 0 0 1-3.398-1.977c-.395-1.48.49-3.018 1.964-3.412l10.469-2.82a2.78 2.78 0 0 1 3.397 1.973M228.37 45.23a2.81 2.81 0 0 1 0 3.944l-7.665 7.698a2.78 2.78 0 0 1-3.927 0l-.004-.004a2.81 2.81 0 0 1 0-3.944l7.668-7.695a2.78 2.78 0 0 1 3.928 0m-58.283-33.79c1.478.393 2.36 1.93 1.967 3.412l-2.807 10.517c-.396 1.481-1.927 2.37-3.398 1.972h-.003a2.8 2.8 0 0 1-1.964-3.415l2.804-10.518a2.78 2.78 0 0 1 3.4-1.968M68.219 18.886h.004a2.775 2.775 0 0 1 3.793 1.02l11.85 20.619a2.803 2.803 0 0 1-1.016 3.81 2.777 2.777 0 0 1-3.793-1.02l-11.853-20.62c-.762-1.33-.307-3.044 1.015-3.809M18.279 69.04a2.78 2.78 0 0 1 3.793-1.02l20.53 11.905a2.8 2.8 0 0 1 1.016 3.806v.004a2.78 2.78 0 0 1-3.793 1.02L19.295 72.85a2.8 2.8 0 0 1-1.016-3.81M0 137.555v-.003a2.79 2.79 0 0 1 2.778-2.786h23.704a2.79 2.79 0 0 1 2.777 2.786v.003a2.79 2.79 0 0 1-2.777 2.786H2.778A2.79 2.79 0 0 1 0 137.555m18.28 68.512v-.004a2.8 2.8 0 0 1 1.015-3.805l20.53-11.905a2.78 2.78 0 0 1 3.793 1.02 2.807 2.807 0 0 1-1.015 3.813l-20.53 11.901a2.775 2.775 0 0 1-3.794-1.02m49.939 50.154a2.803 2.803 0 0 1-1.015-3.806l11.853-20.619a2.77 2.77 0 0 1 3.79-1.023h.003a2.803 2.803 0 0 1 1.016 3.81L72.011 255.2a2.776 2.776 0 0 1-3.793 1.02m136.44 0h-.004c-1.318.769-3.024.307-3.79-1.02l-11.853-20.619a2.807 2.807 0 0 1 1.015-3.81 2.78 2.78 0 0 1 3.797 1.024l11.854 20.62a2.8 2.8 0 0 1-1.02 3.805m49.94-50.158v.004a2.77 2.77 0 0 1-3.79 1.02l-20.534-11.901a2.81 2.81 0 0 1-1.015-3.813 2.78 2.78 0 0 1 3.793-1.02l20.53 11.905a2.8 2.8 0 0 1 1.016 3.805m18.279-68.511v.003a2.787 2.787 0 0 1-2.778 2.786h-23.704a2.79 2.79 0 0 1-2.777-2.786v-.003a2.79 2.79 0 0 1 2.777-2.786h23.704a2.787 2.787 0 0 1 2.778 2.786m-18.28-68.512a2.806 2.806 0 0 1-1.015 3.81l-20.53 11.904a2.78 2.78 0 0 1-3.793-1.02v-.003a2.8 2.8 0 0 1 1.015-3.806l20.53-11.905a2.78 2.78 0 0 1 3.794 1.02m-49.943-50.154h.004a2.8 2.8 0 0 1 1.015 3.81l-11.85 20.618a2.78 2.78 0 0 1-3.797 1.02 2.807 2.807 0 0 1-1.015-3.81l11.854-20.618a2.77 2.77 0 0 1 3.789-1.02M136.44.528a2.79 2.79 0 0 1 2.777 2.786v23.81c0 1.533-1.25 2.79-2.777 2.79a2.793 2.793 0 0 1-2.778-2.79V3.314A2.79 2.79 0 0 1 136.44.528"/><path d="M66.319 167.066c-.037 10.583 1.754 20.788 11.336 31.487 7.242 8.088 15.638 14.064 25.316 18.316 8.091 3.557 17.095 5.93 27.085 7.349-6.657-12.255-4.528-24.822 1.246-36.204a73 73 0 0 1 3.838-6.632l-14.5-8.575 10.747 1.307-.16-.204-17.528-7.754h9.363l-.004-.03-.037-.03-16.416-5.228 7.242-.51a95 95 0 0 0-1.832-.968l-17.18-4.717 8.103.36a684 684 0 0 0-7.072-3.115c-11.406-4.969-22.371-9.748-29.406-16.652l-.01-.011c.763 5.82.734 11.349.511 16.696-.078 1.835-.178 3.647-.274 5.444-.178 3.272-.356 6.488-.368 9.67m57.811-14.705c.682-3.788 1.702-7.821 3.13-11.79a60 60 0 0 1 3.063-7.098l.144-.274q.01-.15.015-.301l-13.62-8.055 9.615 1.174-15.593-6.897h8.188l-14.291-4.556 7.156-.501-.285-.164-17.006-4.668 8.703.39.66.063a827 827 0 0 0-3.044-1.626c-4.88-2.604-9.66-5.155-13.802-7.72.72 3.898.705 7.734.286 11.519-.512 4.649-1.624 9.22-2.73 13.74l-.333 1.374c-.987 4.066-1.903 8.073-2.229 11.924 4.902 2.615 10.45 5.032 16.112 7.502 8.592 3.74 17.429 7.594 24.975 12.492.181-2.042.47-4.24.886-6.528m9.567-11.79c-1.587 3.928-2.714 7.98-3.463 11.79-.783 3.98-1.15 7.702-1.198 10.74 4.26 3.498 7.839 7.523 10.346 12.306 5.606-7.3 12.014-13.621 17.202-18.397 8.981-8.263 18.611-13.933 27.51-19.17a596 596 0 0 0 5.144-3.052 43 43 0 0 0-.627-2.952c-4.03 3.268-10.68 5.975-15.934 7.613 5.218-3.502 10.246-8.341 14.333-13.354l-.153-.502q-.331-1.096-.652-2.187c-4.85 3.636-12.3 6.644-18.26 8.5 5.993-4.018 11.77-9.514 16.536-15.251a45 45 0 0 1-.368-2.117c-5.499 4.412-14.487 8.073-21.603 10.286 6.763-4.534 13.282-10.713 18.689-17.182-3.972 2.525-8.696 5.017-14.11 7.39a158 158 0 0 1-8.147 3.283 190 190 0 0 1-6.719 2.332c-7.58 2.466-12.92 8.53-16.546 15.586a54 54 0 0 0-1.98 4.337m13.85-52.362c5.585-1.214 12.608-1.396 17.006-.56-3.156.456-8.192 2.172-11.826 4.025q1.145.704 1.97 1.463c2.777-.256 5.417-.42 7.516.557-1.557.216-3.452 1.738-5.21 3.202.204.857.211 1.723.04 2.573a6.3 6.3 0 0 1-.57 1.649c-.416 2.58-.846 5.325-1.165 8.125a78 78 0 0 0-.367 4.104 156 156 0 0 0 4.001-1.478 140 140 0 0 0 8.147-3.432c9.386-4.33 16.201-8.942 20.013-13.305q.144-.157.275-.32a49 49 0 0 1 2.666-4.668 5.3 5.3 0 0 0 .17-1.173 4.1 4.1 0 0 0-.263-1.593c-.36-.962-1.075-1.883-2.18-2.748-1.814-1.426-4.49-2.656-8.08-3.629-3.998-1.084-9.126-1.856-15.475-2.231a87.7 87.7 0 0 0-16.668.62c-5.6.742-10.768 1.986-15.122 3.55 4.813-1.14 10.03-1.853 15.122-2.135 7.784-.431 15.27.156 20.55 1.782-5.717.576-13.645.97-20.55 2.555-2.93.676-5.67 1.56-7.984 2.77 1.113.097 1.91.22 2.24.271v-.007h.011l.023.011c1.19.186 2.295.398 3.33.632.752-.223 1.55-.428 2.38-.61m-15.997 16.426c-4.22-1.055-7.58-2.27-10.168-3.599q.136 1.17.238 2.318c.296 3.357.363 6.647-.019 9.607 6.033 4.01 10.969 8.325 13.364 13.16 3.1-3.995 6.909-7.378 11.544-9.651-2.696-.279-5.796-1.192-8.229-2.106 3.408.238 7.157-.122 10.624-.861q.047-.993.126-1.99c-4.142.189-9.819-1.393-14.024-2.968 4.639.323 9.738-.17 14.455-1.177.059-.435.114-.877.174-1.315-.664.19-1.357.342-2.088.457-1.936.305-4.083.334-6.34-.004-3.62-.538-6.831-1.17-9.657-1.871m0-10.428c-1.042.223-2.065.542-3.004.999 1.714-.2 3.683-.063 5.285.178-1.866.375-3.812 1.11-5.637 2.05q.883.299 1.865.587c1.328-.026 2.7.096 3.875.275q-.745.146-1.501.37c2.721.684 5.922 1.312 9.648 1.865 2.077.312 3.946.23 5.466-.119 1.328-.304 2.388-.813 3.093-1.44.278-.257.448-.48.485-.658q.02-.1-.118-.32c-.52-.775-1.628-1.551-3.46-2.25-1.61-.612-3.779-1.166-6.6-1.6l-.004.007-.011-.003-.023-.012c-.749-.115-5.213-.805-9.359.07m-4.676-27.68c-12.882 2.395-23.373 6.28-30.982 10.472-4.806 2.652-8.391 5.377-10.627 7.877-1.788 1.998-2.618 3.62-2.381 4.66.03.123.089.245.189.368l1.176-1.304c9.366-7.664 18.76-13.981 28.99-14.743-9.382 4.253-16.772 11.134-23.94 19.538.883.546.152.03 1.03.575 4.625-5.125 10.959-8.44 18.638-10.186-5.417 3.446-10.583 7.238-14.106 13.213.727.594.801.624 1.524 1.214 2.262-2.759 6.126-5.3 11.14-6.707-3.879 2.347-6.512 5.935-6.808 9.266.637.386.69.29 1.327.672 1.072-1.526 2.93-2.99 5.158-3.45-1.565 1.073-2.277 3.179-2.503 5.236 3.745 2.002 7.535 4.037 11.128 6.143.037-1.727-.052-3.588-.222-5.5-.312-3.55-.875-7.134-1.413-10.45-.36-1.575-.185-3.187.471-4.802 1.009-2.473 3.245-4.813 6.419-6.881 2.751-1.794 6.322-3.443 10.468-4.84 4.713-1.581 10.168-2.825 15.997-3.564a94 94 0 0 1 16.05-.639c1.07-.765 1.83-1.72 2.19-2.715.245-.664.294-1.34.123-1.957-.178-.635-.612-1.262-1.339-1.823-1.631-1.255-4.468-2.113-8.821-2.143-3.705-.026-7.298.07-10.769.279-6.46.386-12.511 1.147-18.107 2.19m28.568 155.07c1.053-.28 2.095-.565 3.122-.87a88 88 0 0 0 10.669-3.888 80 80 0 0 0 1.728-.787c-4.732-.056-8.974-.654-15.367-3.016 8.914.012 20.691-3.23 28.924-8.437-8.003 2.767-13.083-.88-15.716-2.937 7.146.208 24.248-4.252 32.072-12.99-6.952 3.498-19.642 4.538-26.747 2.788 10.454-2.272 21.293-7.89 30.185-16.065-8.255 3.469-16.802 4.568-25.457 4.806 9.578-4.482 21.033-9.143 29.11-16.373q.015-.417.025-.84c-8.184 2.589-17.513 3.343-24.414 3.84 8.65-4.464 17.473-8.56 24.229-15.151-.026-.594-.048-1.185-.078-1.779-6.293 2.154-13.25 2.915-20.039 3.565 7.209-3.543 13.991-7.69 19.672-13.417q-.017-.924-.022-1.846c-4.432 2.76-11.166 4.746-16.483 5.845 5.814-3.123 12.003-8.883 16.742-13.747.03-.424.067-.84.108-1.26-5.73 5.263-12.879 9.474-20.57 14-8.606 5.07-17.928 10.555-26.472 18.413-5.692 5.24-12.908 12.403-18.682 20.573q.046.172.093.338l-.404.104c-1.858 2.663-3.553 5.426-4.992 8.267-5.48 10.802-7.182 22.771.835 34.076a144 144 0 0 0 5.658-.732q1.759-.264 3.479-.572 4.54-.801 8.792-1.909m3.122 5.407a99 99 0 0 1-3.122.81 120 120 0 0 1-8.792 1.812 136 136 0 0 1-4.41.672c-1.738 13.154-.823 23.608 1.81 28.914q-.233.368-.445.747l3.998 2.44-5.967 2.948c-1.468 7.613-1.268 28.123 1.884 34.477a16 16 0 0 0-.441.75l3.997 2.436-5.97 2.953c-.408 2.135-.441 4.267-.3 6.402h-2.062l-6.011.022v-.022h-.79c.211-8.434.538-16.867-.53-25.3l-5.047-2.493 4.224-2.58-.156-.758c3.304-3.357 2.088-30.203 1.505-34.785l-5.046-2.492 4.223-2.577-.156-.758c1.706-1.734 2.222-5.05 1.51-10.008-11.83-1.419-22.424-4.044-31.902-8.215-10.464-4.597-19.546-11.062-27.392-19.826-11.043-12.33-12.979-23.738-12.893-35.502.022-3.298.207-6.622.393-10.001.092-1.69.185-3.39.256-5.114.385-9.135.189-18.78-3.835-29.348a23.3 23.3 0 0 1-1.409-3.951c-.582-2.344-.712-4.702-.211-6.997.515-2.358 1.68-4.601 3.667-6.636 1.776-1.812 4.228-3.446 7.494-4.82 6.226-2.615 13.869.033 3.494 3.706-3.657 1.292-7.847 4.853-8.76 9.024-.296 1.344-.203 2.785.164 4.26q.09.355.2.716c3.779-5.626 8.58-9.551 14.01-12.422-4.992 5.006-8.933 10.818-11.5 17.695q.383.601.794 1.196c1.558-2.926 4.565-7.175 8.97-7.862-2.128 3.131-5.132 7.803-5.851 11.806.456.516.92 1.018 1.383 1.5 1.227-2.573 2.544-5.136 4.694-6.959-1.85 3.045-1.509 7.019-.864 10.465a46 46 0 0 0 3.115 2.232c.405-2.863 1.031-5.715 1.71-8.586q.334-1.39.675-2.793c.993-4.07 1.998-8.188 2.492-12.321.704-5.905.363-11.84-2.56-17.68a6.97 6.97 0 0 1-1.79-3.32c-.682-3.005.634-6.488 3.771-9.994 2.685-3.004 6.812-6.18 12.207-9.154 8.296-4.571 19.784-8.794 33.882-11.304a154 154 0 0 1 18.107-2.102c3.49-.197 7.09-.293 10.795-.267 5.814.037 9.874 1.388 12.448 3.368 1.84 1.41 2.966 3.138 3.486 4.987.522 1.872.404 3.814-.26 5.645-.156.423-.341.846-.556 1.259 3.267.378 6.196.89 8.796 1.519 5.232 1.262 9.133 2.993 11.78 5.065 2.756 2.165 4.287 4.698 4.669 7.498.074.572.104 1.162.089 1.756-.089 2.863-1.324 5.827-3.623 8.783-4.743 10.093-2.373 17.966.026 25.95.742 2.455 1.483 4.92 2.062 7.502 8.874-5.838 15.89-12.233 18.708-22.215.971-3.435-3.553-6.22-8.225-7.453-4.05-1.07-4.587-5.53.586-4.14 4.702 1.262 9.01 3.71 10.568 5.009 3.04 2.547 3.727 5.188 2.874 8.214a37.3 37.3 0 0 1-3.934 9.14l.203.059c-2.67 9.303-2.22 19.014-1.772 28.803.816 17.795 1.646 35.843-14.633 53.806-7.89 8.704-16.96 15.159-27.41 19.775-4.146 1.83-8.51 3.364-13.094 4.634"/></g></svg>