<svg width="40" height="40" viewBox="0 0 40 40" fill="none" xmlns="http://www.w3.org/2000/svg">
<path fill-rule="evenodd" clip-rule="evenodd" d="M15.4917 10.2412H24.5069C27.5687 10.2412 30.0596 12.7321 30.0595 15.7936V24.8088C30.0595 27.8703 27.5687 30.3612 24.5069 30.3612H15.4917C12.4302 30.3612 9.93945 27.8705 9.93945 24.8088V15.7936C9.93945 12.7321 12.4302 10.2412 15.4917 10.2412ZM24.51 28.58C26.5873 28.58 28.2774 26.8901 28.2774 24.8128H28.2773V15.7976C28.2773 13.7204 26.5872 12.0303 24.5099 12.0303H15.4947C13.4175 12.0303 11.7275 13.7204 11.7275 15.7976V24.8128C11.7275 26.8901 13.4175 28.5801 15.4947 28.58H24.51Z" fill="#EDDFCE"/>
<path fill-rule="evenodd" clip-rule="evenodd" d="M14.8135 20.3084C14.8135 17.4497 17.1392 15.124 19.9979 15.124C22.8566 15.124 25.1823 17.4497 25.1823 20.3084C25.1823 23.167 22.8566 25.4926 19.9979 25.4926C17.1392 25.4926 14.8135 23.167 14.8135 20.3084ZM16.6026 20.3124C16.6026 22.1867 18.1276 23.7114 20.0019 23.7114C21.8761 23.7114 23.4011 22.1867 23.4011 20.3124C23.4011 18.438 21.8763 16.9131 20.0019 16.9131C18.1275 16.9131 16.6026 18.438 16.6026 20.3124Z" fill="#EDDFCE"/>
<path d="M25.398 13.6047C25.054 13.6047 24.7162 13.744 24.4733 13.9879C24.2292 14.2307 24.0889 14.5687 24.0889 14.9138C24.0889 15.2579 24.2293 15.5958 24.4733 15.8397C24.716 16.0825 25.054 16.2229 25.398 16.2229C25.7431 16.2229 26.0799 16.0825 26.3239 15.8397C26.5678 15.5958 26.7071 15.2578 26.7071 14.9138C26.7071 14.5687 26.5678 14.2307 26.3239 13.9879C26.0811 13.744 25.7431 13.6047 25.398 13.6047Z" fill="#EDDFCE"/>
<circle cx="19.999" cy="20.2246" r="19.2021" stroke="#EDDFCE"/>
</svg>
