<?xml version="1.0" encoding="UTF-8"?>
<svg width="22px" height="22px" viewBox="0 0 22 22" version="1.1" xmlns="http://www.w3.org/2000/svg" xmlns:xlink="http://www.w3.org/1999/xlink">
    <!-- Generator: Sketch 56.2 (81672) - https://sketch.com -->
    <title>Group 3 Copy 3</title>
    <desc>Created with Sketch.</desc>
    <g id="Desktop" stroke="none" stroke-width="1" fill="none" fill-rule="evenodd">
        <g id="08" transform="translate(-1296.000000, -917.000000)" fill="#010202" stroke="#000000" stroke-width="0.5">
            <g id="Group-3-Copy-3" transform="translate(1297.000000, 918.000000)">
                <path d="M14.3478261,10.4356522 L10.4347826,10.4356522 L10.4347826,14.3486957 C10.4347826,14.5886957 10.2391304,14.7834783 10,14.7834783 C9.76,14.7834783 9.56521739,14.5886957 9.56521739,14.3486957 L9.56521739,10.4356522 L5.65217391,10.4356522 C5.41217391,10.4356522 5.2173913,10.2408696 5.2173913,10.0008696 C5.2173913,9.76086957 5.41217391,9.56608696 5.65217391,9.56608696 L9.56521739,9.56608696 L9.56521739,5.65304348 C9.56521739,5.41304348 9.76,5.21826087 10,5.21826087 C10.2391304,5.21826087 10.4347826,5.41304348 10.4347826,5.65304348 L10.4347826,9.56608696 L14.3478261,9.56608696 C14.5869565,9.56608696 14.7826087,9.76086957 14.7826087,10.0008696 C14.7826087,10.2408696 14.5869565,10.4356522 14.3478261,10.4356522 M9.99913043,0.870434783 C4.95826087,0.870434783 0.871304348,4.95826087 0.871304348,10 C0.871304348,15.0426087 4.95826087,19.1278261 9.99913043,19.1278261 C15.0417391,19.1278261 19.1286957,15.0426087 19.1286957,10 C19.1286957,4.95826087 15.0417391,0.870434783 9.99913043,0.870434783 M9.99913043,20 C4.47652174,20 0,15.5243478 0,10 C0,4.47652174 4.47652174,0 9.99913043,0 C15.5234783,0 20,4.47652174 20,10 C20,15.5243478 15.5234783,20 9.99913043,20" id="Fill-1"></path>
            </g>
        </g>
    </g>
</svg>