<?xml version="1.0" encoding="UTF-8"?>
<svg fill="none" viewBox="0 0 41 40" xmlns="http://www.w3.org/2000/svg">
<path d="m13.104 27.806c2.5825 0.1644 5.239 0.2479 7.8042 0.2479 2.5956 0 5.0973-0.0852 7.3346-0.2557 1.7684-0.2992 3.0096-2.2468 3.1453-3.8795 0.2349-2.8375 0.2349-4.6581-8e-4 -7.492v-0.0018c-0.1479-1.7205-1.2222-3.6046-3.2133-3.6759-3.127-0.2053-9.2464-0.4793-15.102 0.0026-1.7841 0.1957-3.0401 2.152-3.1802 3.8508-0.2366 2.8383-0.2366 4.4788 0 7.3171 0.14088 1.6971 1.3944 3.6647 3.2124 3.8865zm10.952-7.827-5.5722-3.1218c-0.1862-0.1044-0.415 0.0304-0.415 0.2435v6.242c0 0.2131 0.2288 0.3471 0.415 0.2436l5.5722-3.121c0.1896-0.1061 0.1896-0.3801 0-0.4863z" clip-rule="evenodd" fill="#EDDFCE" fill-rule="evenodd"/>
<circle cx="20.639" cy="20.192" r="19.202" stroke="#EDDFCE"/>
</svg>
